<?xml version="1.0" encoding="UTF-8"?>
<!DOCTYPE svg PUBLIC "-//W3C//DTD SVG 1.1//EN" "http://www.w3.org/Graphics/SVG/1.1/DTD/svg11.dtd">
<!-- Creator: CorelDRAW 2017 -->
<svg xmlns="http://www.w3.org/2000/svg" xml:space="preserve" width="7.8507mm" height="8.6058mm" version="1.1" style="shape-rendering:geometricPrecision; text-rendering:geometricPrecision; image-rendering:optimizeQuality; fill-rule:evenodd; clip-rule:evenodd"
viewBox="0 0 3118 3418"
 xmlns:xlink="http://www.w3.org/1999/xlink">
 <defs>
  <style type="text/css">
   <![CDATA[
    .str0 {stroke:#EBECEC;stroke-width:79.4284}
    .fil0 {fill:#EBECEC}
   ]]>
  </style>
 </defs>
 <g id="Layer_x0020_1">
  <metadata id="CorelCorpID_0Corel-Layer"/>
  <path class="fil0 str0" d="M1562 40c275,1 472,146 580,289 59,79 109,181 132,301 25,124 8,289 13,421 46,11 231,3 292,3 385,-1 354,-44 368,211 26,453 61,908 87,1360 10,183 22,367 35,550 6,84 37,197 -67,199 -94,2 -195,1 -289,0 -382,-4 -774,-5 -1156,0 -385,5 -776,2 -1161,0 -79,0 -221,9 -292,-1 -91,-13 -60,-132 -54,-214 44,-632 83,-1266 131,-1897 7,-88 -12,-202 81,-208 107,-8 523,10 576,-3 11,-328 -33,-485 145,-722 107,-142 306,-291 580,-290zm-1368 3190c162,7 442,-1 620,1l2110 -1 -122 -2026c-34,-3 -1846,-4 -2442,-3 -34,0 -33,-5 -35,30l-97 1480c-12,172 -28,348 -34,520zm789 -2175l1158 0c6,-91 7,-271 -3,-359 -55,-505 -734,-713 -1053,-262 -50,71 -86,156 -100,261 -10,79 -9,278 -3,360z"/>
 </g>
</svg>
