<?xml version="1.0" encoding="UTF-8"?>
<!DOCTYPE svg PUBLIC "-//W3C//DTD SVG 1.1//EN" "http://www.w3.org/Graphics/SVG/1.1/DTD/svg11.dtd">
<!-- Creator: CorelDRAW 2017 -->
<svg xmlns="http://www.w3.org/2000/svg" xml:space="preserve" width="21px" height="21px" version="1.1" style="shape-rendering:geometricPrecision; text-rendering:geometricPrecision; image-rendering:optimizeQuality; fill-rule:evenodd; clip-rule:evenodd"
viewBox="0 0 0.579 0.58"
 xmlns:xlink="http://www.w3.org/1999/xlink">
 <defs>
  <style type="text/css">
   <![CDATA[
    .fil0 {fill:white}
   ]]>
  </style>
 </defs>
 <g id="Layer_x0020_1">
  <metadata id="CorelCorpID_0Corel-Layer"/>
  <g id="_640471760">
   <path class="fil0" d="M0.399 0.508c-0.032,-0.014 -0.069,-0.041 -0.09,-0.058l0 0c0,0 0,0 -0.001,0 -0.012,-0.009 -0.018,-0.015 -0.018,-0.015l0 0 0 0c0,0 -0.007,0.006 -0.019,0.015l0 0 0 0c-0.021,0.017 -0.057,0.044 -0.09,0.058 -0.007,0.003 -0.055,0.018 -0.019,0.042 0.038,0.019 0.082,0.03 0.128,0.03 0.046,0 0.089,-0.011 0.128,-0.03 0.036,-0.024 -0.013,-0.039 -0.019,-0.042z"/>
   <path class="fil0" d="M0.29 0c-0.16,0 -0.29,0.13 -0.29,0.29 0,0.083 0.036,0.159 0.092,0.211 0.006,0.003 0.026,0.016 0.079,-0.005 0.008,-0.003 0.066,-0.033 0.108,-0.07 -0.009,-0.008 -0.018,-0.015 -0.026,-0.022 -0.016,-0.013 -0.031,-0.029 -0.041,-0.041 -0.172,-0.199 0.078,-0.191 0.078,-0.191 0,0 0.248,-0.008 0.077,0.191 -0.005,0.005 -0.01,0.011 -0.016,0.017 0,0 0,0 0,0 -0.001,0.002 -0.004,0.005 -0.008,0.008 -0.004,0.004 -0.009,0.009 -0.013,0.012 -0.009,0.008 -0.02,0.017 -0.03,0.026 0.042,0.037 0.1,0.067 0.108,0.07 0.053,0.022 0.073,0.008 0.079,0.005 0.057,-0.053 0.092,-0.128 0.092,-0.211 0,-0.16 -0.13,-0.29 -0.29,-0.29l0.001 0z"/>
  </g>
 </g>
</svg>
