<?xml version="1.0" encoding="UTF-8"?>
<!DOCTYPE svg PUBLIC "-//W3C//DTD SVG 1.1//EN" "http://www.w3.org/Graphics/SVG/1.1/DTD/svg11.dtd">
<!-- Creator: CorelDRAW 2017 -->
<svg xmlns="http://www.w3.org/2000/svg" xml:space="preserve" width="66px" height="66px" version="1.1" style="shape-rendering:geometricPrecision; text-rendering:geometricPrecision; image-rendering:optimizeQuality; fill-rule:evenodd; clip-rule:evenodd"
viewBox="0 0 66 66.11"
 xmlns:xlink="http://www.w3.org/1999/xlink">
 <defs>
  <style type="text/css">
   <![CDATA[
    .fil0 {fill:#2B2A29}
   ]]>
  </style>
 </defs>
 <g id="Layer_x0020_1">
  <metadata id="CorelCorpID_0Corel-Layer"/>
  <g id="_640471760">
   <path class="fil0" d="M45.48 57.91c-3.65,-1.6 -7.86,-4.68 -10.26,-6.61l0 0c0,0 0,0 -0.11,0 -1.37,-1.03 -2.05,-1.71 -2.05,-1.71l0 0 0 0c0,0 -0.8,0.68 -2.17,1.71l0 0 0 0c-2.39,1.93 -6.5,5.01 -10.26,6.61 -0.8,0.34 -6.27,2.05 -2.16,4.78 4.33,2.17 9.34,3.42 14.59,3.42 5.24,0 10.14,-1.25 14.59,-3.42 4.1,-2.73 -1.48,-4.44 -2.17,-4.78z"/>
   <path class="fil0" d="M33.06 0c-18.24,0 -33.06,14.82 -33.06,33.06 0,9.46 4.1,18.12 10.49,24.05 0.68,0.34 2.96,1.82 9,-0.57 0.91,-0.34 7.53,-3.76 12.31,-7.98 -1.02,-0.91 -2.05,-1.71 -2.96,-2.51 -1.83,-1.48 -3.54,-3.3 -4.68,-4.67 -19.6,-22.69 8.9,-21.77 8.9,-21.77 0,0 28.27,-0.92 8.77,21.77 -0.57,0.57 -1.14,1.25 -1.82,1.94 0,0 0,0 0,0 -0.12,0.22 -0.46,0.57 -0.91,0.91 -0.46,0.45 -1.03,1.02 -1.48,1.37 -1.03,0.91 -2.28,1.93 -3.42,2.96 4.78,4.22 11.4,7.64 12.31,7.98 6.04,2.51 8.32,0.91 9,0.57 6.5,-6.04 10.49,-14.59 10.49,-24.05 0,-18.24 -14.82,-33.06 -33.06,-33.06l0.12 0 0 0z"/>
  </g>
 </g>
</svg>
