<?xml version="1.0" encoding="utf-8"?>
<!-- Generator: Adobe Illustrator 23.0.1, SVG Export Plug-In . SVG Version: 6.00 Build 0)  -->
<svg version="1.1" id="Camada_1" xmlns="http://www.w3.org/2000/svg" xmlns:xlink="http://www.w3.org/1999/xlink" x="0px" y="0px"
	 viewBox="0 0 109 109" style="enable-background:new 0 0 109 109;" xml:space="preserve">
<style type="text/css">
	.st0{clip-path:url(#SVGID_2_);fill:#FFFFFF;}
	.st1{clip-path:url(#SVGID_2_);fill:#EEECEC;}
	.st2{clip-path:url(#SVGID_2_);fill:url(#SVGID_3_);}
	.st3{clip-path:url(#SVGID_2_);fill:url(#SVGID_4_);}
	.st4{clip-path:url(#SVGID_2_);}
	.st5{clip-path:url(#SVGID_2_);fill:none;stroke:#FFFFFF;stroke-miterlimit:10;}
	.st6{fill:#030403;}
	.st7{fill:#CECBCE;}
	.st8{fill:#FFFFFF;}
	.st9{enable-background:new    ;}
	.st10{clip-path:url(#SVGID_12_);}
	.st11{fill:#888583;}
	.st12{fill:#C0BEBF;}
	.st13{fill:#848180;}
	.st14{clip-path:url(#SVGID_2_);fill:#CECBCE;}
	.st15{clip-path:url(#SVGID_2_);fill:#010101;}
	.st16{clip-path:url(#SVGID_14_);fill:#DD3F7D;}
	.st17{fill:#DD3F7D;}
	.st18{fill:#B9B9BA;}
	.st19{fill:#DFDFDE;}
	.st20{opacity:0.3;}
	.st21{clip-path:url(#SVGID_20_);}
	.st22{clip-path:url(#SVGID_26_);fill:#F4F3F3;}
	.st23{fill:#CECFCF;}
	.st24{fill:#A4A3A3;}
	.st25{fill:none;stroke:#000000;stroke-width:3;stroke-miterlimit:10;}
	.st26{fill:#10A0A8;}
	.st27{fill:#010101;}
	.st28{fill:#84C671;}
	.st29{fill:#EEECEC;}
	.st30{fill:url(#SVGID_29_);}
	.st31{fill:url(#SVGID_30_);}
	.st32{fill:none;stroke:#FFFFFF;stroke-miterlimit:10;}
	.st33{clip-path:url(#SVGID_38_);}
	.st34{fill:#F0CF43;}
	.st35{clip-path:url(#SVGID_40_);fill:#DD3F7D;}
	.st36{clip-path:url(#SVGID_42_);fill:#F4F3F3;}
	.st37{fill:#E4603A;}
	.st38{clip-path:url(#SVGID_44_);fill:#D7D7D7;}
	.st39{clip-path:url(#SVGID_44_);fill:#B2B2B2;}
	.st40{fill:#CDCBCE;}
	.st41{clip-path:url(#SVGID_46_);fill:#D7D7D7;}
	.st42{clip-path:url(#SVGID_46_);fill:#B2B2B2;}
	.st43{fill:#418BCA;}
	.st44{clip-path:url(#SVGID_52_);fill:#DD3F7D;}
	.st45{clip-path:url(#SVGID_54_);fill:#F4F3F3;}
	.st46{clip-path:url(#SVGID_58_);}
	.st47{fill:#E2E2E2;}
	.st48{clip-path:url(#SVGID_66_);}
	.st49{clip-path:url(#SVGID_72_);}
	.st50{fill:#50A4DB;}
	.st51{fill:url(#SVGID_85_);}
	.st52{fill:url(#SVGID_86_);}
	.st53{fill:#B1B3B5;}
	.st54{clip-path:url(#SVGID_88_);}
	.st55{clip-path:url(#SVGID_90_);fill:#D7D7D7;}
	.st56{clip-path:url(#SVGID_90_);fill:#B2B2B2;}
</style>
<circle class="st18" cx="49.1" cy="31.72" r="5.92"/>
<g>
	<path class="st19" d="M45.58,31.73c0.4-0.34,0.98-0.63,1.34-0.8l0,0c0,0,0,0,0.01,0c0.19-0.09,0.32-0.14,0.32-0.14l0,0l0,0
		c0,0-0.04-0.14-0.08-0.35l0,0l0,0c-0.08-0.39-0.19-1.03-0.16-1.55c0-0.1,0.32-0.73-0.23-0.42c-0.5,0.38-0.92,0.87-1.22,1.47
		s-0.44,1.23-0.45,1.86C45.19,32.42,45.5,31.79,45.58,31.73z"/>
	<path class="st19" d="M52.91,33.63c1.04-2.08,0.2-4.62-1.88-5.67c-1.09-0.54-2.3-0.57-3.35-0.19c-0.07,0.06-0.39,0.24-0.45,1.07
		c-0.01,0.13,0,1.07,0.21,1.86c0.15-0.06,0.31-0.13,0.45-0.19c0.27-0.13,0.58-0.22,0.79-0.28c3.72-0.93,1.98,2.27,1.98,2.27
		s-1.51,3.29-2.99-0.25c-0.04-0.09-0.08-0.19-0.12-0.31c0,0,0,0,0,0c-0.01-0.03-0.03-0.09-0.05-0.16c-0.03-0.08-0.05-0.17-0.07-0.26
		c-0.04-0.17-0.09-0.37-0.14-0.55c-0.76,0.31-1.52,0.86-1.62,0.94c-0.63,0.56-0.58,0.91-0.59,1.01c0.32,1.08,1.07,2.03,2.15,2.57
		C49.33,36.55,51.86,35.71,52.91,33.63z"/>
</g>
<circle class="st18" cx="32.22" cy="34.74" r="5.09"/>
<g>
	<path class="st19" d="M29.2,34.76c0.34-0.29,0.84-0.54,1.15-0.69l0,0c0,0,0,0,0.01,0c0.16-0.08,0.27-0.12,0.27-0.12l0,0l0,0
		c0,0-0.03-0.12-0.07-0.3l0,0l0,0c-0.07-0.33-0.16-0.89-0.14-1.34c0-0.08,0.27-0.63-0.19-0.36c-0.43,0.33-0.79,0.75-1.05,1.27
		s-0.38,1.06-0.38,1.6C28.86,35.35,29.13,34.81,29.2,34.76z"/>
	<path class="st19" d="M35.5,36.39c0.9-1.79,0.17-3.98-1.62-4.87c-0.93-0.47-1.97-0.49-2.88-0.16c-0.06,0.05-0.33,0.21-0.39,0.92
		c-0.01,0.11,0,0.92,0.18,1.6c0.13-0.05,0.26-0.11,0.39-0.16c0.23-0.11,0.5-0.19,0.68-0.24c3.2-0.8,1.71,1.95,1.71,1.95
		s-1.3,2.83-2.57-0.22c-0.03-0.07-0.07-0.16-0.1-0.26c0,0,0,0,0,0c-0.01-0.02-0.03-0.08-0.05-0.14c-0.02-0.07-0.04-0.15-0.06-0.22
		c-0.04-0.15-0.08-0.32-0.12-0.47c-0.65,0.26-1.31,0.74-1.39,0.81c-0.54,0.48-0.5,0.78-0.51,0.87c0.28,0.93,0.92,1.75,1.85,2.21
		C32.42,38.91,34.6,38.18,35.5,36.39z"/>
</g>
<circle class="st18" cx="38.96" cy="21.3" r="5.09"/>
<g>
	<path class="st19" d="M35.94,21.31c0.34-0.29,0.84-0.54,1.15-0.69l0,0c0,0,0,0,0.01,0c0.16-0.08,0.27-0.12,0.27-0.12l0,0l0,0
		c0,0-0.03-0.12-0.07-0.3l0,0l0,0c-0.07-0.33-0.16-0.89-0.14-1.34c0-0.08,0.27-0.63-0.19-0.36c-0.43,0.33-0.79,0.75-1.05,1.27
		c-0.26,0.51-0.38,1.06-0.38,1.6C35.6,21.9,35.87,21.36,35.94,21.31z"/>
	<path class="st19" d="M42.24,22.94c0.9-1.79,0.17-3.98-1.62-4.87c-0.93-0.47-1.97-0.49-2.88-0.16c-0.06,0.05-0.33,0.21-0.39,0.92
		c-0.01,0.11,0,0.92,0.18,1.6c0.13-0.05,0.26-0.11,0.39-0.16c0.23-0.11,0.5-0.19,0.68-0.24c3.2-0.8,1.71,1.95,1.71,1.95
		s-1.3,2.83-2.57-0.22c-0.03-0.07-0.07-0.16-0.1-0.26c0,0,0,0,0,0c-0.01-0.02-0.03-0.08-0.05-0.14c-0.02-0.07-0.04-0.15-0.06-0.22
		c-0.04-0.15-0.08-0.32-0.12-0.47c-0.65,0.26-1.31,0.74-1.39,0.81c-0.54,0.48-0.5,0.78-0.51,0.87c0.28,0.93,0.92,1.75,1.85,2.21
		C39.16,25.46,41.34,24.73,42.24,22.94z"/>
</g>
<circle class="st18" cx="36.65" cy="6.55" r="6.13"/>
<g>
	<path class="st19" d="M33.01,6.57c0.41-0.35,1.02-0.66,1.39-0.83l0,0c0,0,0,0,0.01,0c0.2-0.09,0.33-0.14,0.33-0.14l0,0l0,0
		c0,0-0.04-0.14-0.08-0.36l0,0l0,0c-0.08-0.4-0.2-1.07-0.17-1.61c0-0.1,0.33-0.76-0.23-0.43c-0.52,0.39-0.95,0.9-1.26,1.52
		c-0.31,0.62-0.46,1.28-0.46,1.93C32.6,7.29,32.93,6.63,33.01,6.57z"/>
	<path class="st19" d="M40.6,8.53c1.08-2.16,0.21-4.79-1.95-5.87c-1.13-0.56-2.38-0.6-3.47-0.19c-0.08,0.06-0.4,0.25-0.47,1.11
		c-0.01,0.13,0,1.11,0.22,1.93c0.15-0.07,0.32-0.14,0.47-0.2c0.28-0.13,0.6-0.23,0.82-0.29c3.86-0.96,2.05,2.35,2.05,2.35
		s-1.56,3.4-3.1-0.26c-0.04-0.09-0.08-0.2-0.12-0.32c0,0,0,0,0,0C35.04,6.77,35.02,6.7,35,6.62c-0.03-0.09-0.05-0.18-0.07-0.26
		c-0.05-0.18-0.1-0.38-0.14-0.57C34,6.11,33.21,6.69,33.11,6.77c-0.65,0.58-0.61,0.94-0.61,1.04c0.33,1.12,1.11,2.1,2.23,2.67
		C36.89,11.56,39.52,10.69,40.6,8.53z"/>
</g>
<path class="st40" d="M81.18,44.72c0,0-1.69-1.61-25.77-1.91c-24.08,0.11-26.59,1.7-26.59,1.7s-1.26,9.69,2.15,23.03
	s4.03,36.24,3.82,38.37c2.24-0.09,6.41,0.84,9.25,1.77c2.85,0.93,11.12,0.86,11.12,0.86s8.27,0.13,11.12-0.77
	c2.85-0.9,7.03-1.8,9.27-1.69c-0.19-2.14-0.2-25.03,3.31-38.34S81.18,44.72,81.18,44.72z"/>
</svg>
