<?xml version="1.0" encoding="UTF-8"?>
<!DOCTYPE svg PUBLIC "-//W3C//DTD SVG 1.1//EN" "http://www.w3.org/Graphics/SVG/1.1/DTD/svg11.dtd">
<!-- Creator: CorelDRAW 2017 -->
<svg xmlns="http://www.w3.org/2000/svg" xml:space="preserve" width="201px" height="276px" version="1.1" style="shape-rendering:geometricPrecision; text-rendering:geometricPrecision; image-rendering:optimizeQuality; fill-rule:evenodd; clip-rule:evenodd"
viewBox="0 0 222.49 306.06"
 xmlns:xlink="http://www.w3.org/1999/xlink">
 <defs>
  <style type="text/css">
   <![CDATA[
    .str0 {stroke:#FEFEFE}
    .fil0 {fill:white}
   ]]>
  </style>
 </defs>
 <g id="Layer_x0020_1">
  <metadata id="CorelCorpID_0Corel-Layer"/>
  <g id="_344649176">
   <g>
    <path class="fil0 str0" d="M33.67 284.55c0,1.25 -0.44,2.3 -1.33,3.15 -0.88,0.86 -1.93,1.28 -3.1,1.28l-24.32 0c-1.24,0 -2.29,-0.42 -3.15,-1.28 -0.85,-0.85 -1.27,-1.91 -1.27,-3.15l0 -35.37c0,-1.19 0.42,-2.2 1.27,-3.1 0.86,-0.87 1.91,-1.31 3.15,-1.31l24.34 0c1.17,0 2.22,0.44 3.1,1.31 0.87,0.9 1.32,1.95 1.32,3.19l0 -21.05 11.41 0 0 60.76 -11.41 0 0 -4.43 -0.01 0zm-4.41 -6.63c1.17,0 2.22,-0.42 3.1,-1.29 0.87,-0.86 1.32,-1.91 1.32,-3.15l0 -17.69 -21.76 0 0 22.12 17.34 0 0 0.01z"/>
    <path class="fil0 str0" d="M91.43 284.55c0,1.25 -0.44,2.3 -1.28,3.15 -0.85,0.86 -1.9,1.28 -3.13,1.28l-35.74 0c-1.24,0 -2.29,-0.42 -3.13,-1.28 -0.86,-0.85 -1.28,-1.91 -1.28,-3.15l0 -35.3c0,-1.22 0.44,-2.29 1.28,-3.18 0.86,-0.88 1.91,-1.32 3.13,-1.32l35.74 0c1.25,0 2.3,0.44 3.13,1.32 0.86,0.89 1.28,1.9 1.28,3.09l0 35.39zm-11.4 -28.74l-21.77 0 0 22.11 21.77 0 0 -22.11z"/>
    <path class="fil0 str0" d="M97.45 305.53c-1.19,0 -2.19,-0.44 -3.01,-1.28 -0.82,-0.85 -1.24,-1.91 -1.24,-3.13l0 -9.39 11.42 0 0 2.74 18.04 0 0 -9.9c0,1.19 -0.44,2.21 -1.33,3.1 -0.89,0.89 -1.93,1.33 -3.1,1.33l-20.61 0c-1.24,0 -2.29,-0.44 -3.13,-1.33 -0.85,-0.89 -1.29,-1.91 -1.29,-3.1l0 -35.37c0,-1.19 0.44,-2.21 1.29,-3.1 0.86,-0.87 1.89,-1.31 3.13,-1.31l20.61 0c1.17,0 2.23,0.42 3.1,1.28 0.87,0.85 1.33,1.9 1.33,3.14l0 -4.4 11.4 0 0 56.35c0,1.24 -0.43,2.27 -1.32,3.13 -0.88,0.85 -1.93,1.27 -3.1,1.27l-32.19 0 0 -0.03zm20.7 -27.61c1.24,0 2.31,-0.43 3.18,-1.33 0.87,-0.87 1.33,-1.9 1.33,-3.09l0 -17.69 -18.04 0 0 22.11 13.53 0z"/>
    <path class="fil0 str0" d="M139.38 270.23c0,-1.35 0.46,-2.44 1.42,-3.28l28.03 -22.2 0 -5.49 -18.04 0 0 2.75 -11.41 0 0 -9.38c0,-1.24 0.42,-2.29 1.28,-3.15 0.86,-0.86 1.91,-1.28 3.13,-1.28l32.03 0c1.23,0 2.28,0.42 3.15,1.28 0.86,0.86 1.28,1.87 1.28,3.06l0 14.42c0,1.24 -0.47,2.33 -1.42,3.27l-28.04 22.2 0 5.49 29.46 0 0 11.06 -36.46 0c-1.24,0 -2.27,-0.42 -3.13,-1.28 -0.86,-0.85 -1.28,-1.91 -1.28,-3.15l0 -14.32z"/>
    <path class="fil0 str0" d="M200.23 288.98l-12.3 0 21.67 -49.72 -17.07 0 0 2.75 -11.41 0 0 -9.38c0,-1.24 0.44,-2.29 1.28,-3.15 0.86,-0.86 1.91,-1.28 3.15,-1.28l32.01 0c1.25,0 2.3,0.42 3.15,1.28 0.86,0.86 1.28,1.91 1.28,3.15l0 5.84c0,0.3 -0.07,0.69 -0.17,1.16l-21.59 49.35z"/>
   </g>
   <g>
    <path class="fil0 str0" d="M151.51 187.85c-12.14,-5.24 -25.47,-15.03 -33.33,-21.26l0.02 0.02c0,0 -0.09,-0.07 -0.19,-0.16 -4.17,-3.31 -6.76,-5.58 -6.76,-5.58l0 0 0 0c0,0 -2.66,2.33 -6.93,5.72l-0.01 0.02 0 -0.02c-7.86,6.24 -21.17,16.04 -33.31,21.26 -2.24,1.06 -20.17,6.71 -6.88,15.46 14.23,7 30.22,10.95 47.13,10.95 16.92,0 32.93,-3.95 47.15,-10.95 13.26,-8.75 -4.64,-14.4 -6.89,-15.46z"/>
    <path class="fil0 str0" d="M111.25 0.5c-59.02,0 -106.89,47.85 -106.89,106.87 0,30.77 13.02,58.47 33.84,77.97 2.2,0.98 9.78,6.04 29.48,-1.89 2.95,-1.31 24.15,-12.21 39.71,-25.96 -3.1,-2.6 -6.44,-5.46 -9.47,-8.1 -6,-4.67 -11.63,-10.63 -15.24,-14.83 -63.29,-73.72 28.83,-70.59 28.83,-70.59 0,0 91.5,-3.13 28.21,70.62 -1.54,1.77 -3.47,3.89 -5.66,6.11 0,0 0,0 0,0 -0.5,0.61 -1.62,1.69 -3.13,3.08 -1.61,1.52 -3.28,3.02 -4.98,4.44 -3.38,2.94 -7.28,6.26 -10.85,9.29 15.55,13.75 36.76,24.63 39.71,25.96 19.68,7.91 27.26,2.89 29.46,1.89 20.82,-19.51 33.84,-47.22 33.84,-77.97 0.01,-59.04 -47.83,-106.89 -106.86,-106.89z"/>
   </g>
  </g>
 </g>
</svg>
