<?xml version="1.0" encoding="UTF-8"?>
<!DOCTYPE svg PUBLIC "-//W3C//DTD SVG 1.1//EN" "http://www.w3.org/Graphics/SVG/1.1/DTD/svg11.dtd">
<!-- Creator: CorelDRAW 2017 -->
<svg xmlns="http://www.w3.org/2000/svg" xml:space="preserve" width="70px" height="50px" version="1.1" style="shape-rendering:geometricPrecision; text-rendering:geometricPrecision; image-rendering:optimizeQuality; fill-rule:evenodd; clip-rule:evenodd"
viewBox="0 0 70 50"
 xmlns:xlink="http://www.w3.org/1999/xlink">
 <defs>
  <style type="text/css">
   <![CDATA[
    .fil0 {fill:#FEFEFE}
   ]]>
  </style>
 </defs>
 <g id="Layer_x0020_1">
  <metadata id="CorelCorpID_0Corel-Layer"/>
  <path class="fil0" d="M4.99 10l60.02 0c2.75,0 4.99,-2.24 4.99,-5 0,-2.76 -2.24,-5 -4.99,-5l-60.02 0c-2.75,0 -4.99,2.24 -4.99,5 0,2.76 2.24,5 4.99,5zm60.02 9.99l-60.02 0c-2.75,0 -4.99,2.25 -4.99,5.01 0,2.76 2.24,5 4.99,5l60.02 0c2.75,0 4.99,-2.24 4.99,-5 0,-2.76 -2.24,-5.01 -4.99,-5.01zm0 20.01l-60.02 0c-2.75,0 -4.99,2.24 -4.99,5 0,2.76 2.24,5 4.99,5l60.02 0c2.75,0 4.99,-2.24 4.99,-5 0,-2.76 -2.24,-5 -4.99,-5z"/>
 </g>
</svg>
