<?xml version="1.0" encoding="UTF-8"?>
<!DOCTYPE svg PUBLIC "-//W3C//DTD SVG 1.1//EN" "http://www.w3.org/Graphics/SVG/1.1/DTD/svg11.dtd">
<!-- Creator: CorelDRAW 2017 -->
<svg xmlns="http://www.w3.org/2000/svg" xml:space="preserve" width="4.6276mm" height="4.6276mm" version="1.1" style="shape-rendering:geometricPrecision; text-rendering:geometricPrecision; image-rendering:optimizeQuality; fill-rule:evenodd; clip-rule:evenodd"
viewBox="0 0 450 450"
 xmlns:xlink="http://www.w3.org/1999/xlink">
 <defs>
  <style type="text/css">
   <![CDATA[
    .fil0 {fill:#EBECEC}
   ]]>
  </style>
 </defs>
 <g id="Layer_x0020_1">
  <metadata id="CorelCorpID_0Corel-Layer"/>
  <path class="fil0" d="M321 283l-20 0 -7 -7c25,-29 40,-67 40,-109 0,-92 -75,-167 -167,-167 -92,0 -167,75 -167,167 0,92 75,167 167,167 41,0 79,-15 109,-40l7 7 0 20 129 128 38 -38 -128 -129zm-154 0c-64,0 -116,-52 -116,-116 0,-64 52,-116 116,-116 64,0 116,52 116,116 0,64 -52,116 -116,116z"/>
 </g>
</svg>
