<?xml version="1.0" encoding="utf-8"?>
<!-- Generator: Adobe Illustrator 23.0.6, SVG Export Plug-In . SVG Version: 6.00 Build 0)  -->
<svg version="1.1" id="Camada_1" xmlns="http://www.w3.org/2000/svg" xmlns:xlink="http://www.w3.org/1999/xlink" x="0px" y="0px"
	 viewBox="0 0 77 77" style="enable-background:new 0 0 77 77;" xml:space="preserve">
<style type="text/css">
	.st0{fill:#706F6F;}
	.st1{fill-rule:evenodd;clip-rule:evenodd;fill:#E8E8E8;}
	.st2{fill:#E8E8E8;}
</style>
<g>
	<path class="st0" d="M69.94,77.05H7.24c-3.95,0-7.15-3.2-7.15-7.15V7.2c0-3.95,3.2-7.15,7.15-7.15h62.7c3.95,0,7.15,3.2,7.15,7.15
		v62.7C77.09,73.85,73.89,77.05,69.94,77.05z"/>
	<g>
		<circle class="st2" cx="52.66" cy="24.58" r="3.12"/>
		<path class="st2" d="M38.81,25.46c-7.22,0-13.09,5.87-13.09,13.09s5.87,13.09,13.09,13.09s13.09-5.87,13.09-13.09
			S46.02,25.46,38.81,25.46z M38.81,46.93c-4.62,0-8.38-3.76-8.38-8.38c0-4.62,3.76-8.38,8.38-8.38s8.38,3.76,8.38,8.38
			C47.19,43.17,43.43,46.93,38.81,46.93z"/>
		<g>
			<path class="st2" d="M49.2,65.12H27.98c-8.8,0-15.96-7.16-15.96-15.96V27.94c0-8.8,7.16-15.96,15.96-15.96H49.2
				c8.8,0,15.96,7.16,15.96,15.96v21.22C65.16,57.96,58,65.12,49.2,65.12z M27.98,16.97c-6.05,0-10.96,4.92-10.96,10.96v21.22
				c0,6.05,4.92,10.96,10.96,10.96H49.2c6.05,0,10.96-4.92,10.96-10.96V27.94c0-6.05-4.92-10.96-10.96-10.96H27.98z"/>
		</g>
	</g>
</g>
</svg>
