<?xml version="1.0" encoding="utf-8"?>
<!-- Generator: Adobe Illustrator 23.0.6, SVG Export Plug-In . SVG Version: 6.00 Build 0)  -->
<svg version="1.1" id="Camada_1" xmlns="http://www.w3.org/2000/svg" xmlns:xlink="http://www.w3.org/1999/xlink" x="0px" y="0px"
	 viewBox="0 0 77 77" style="enable-background:new 0 0 77 77;" xml:space="preserve">
<style type="text/css">
	.st0{fill:#706F6F;}
	.st1{fill-rule:evenodd;clip-rule:evenodd;fill:#E8E8E8;}
	.st2{fill:#E8E8E8;}
</style>
<g>
	<path class="st0" d="M70.44,77.05H7.74c-3.95,0-7.15-3.2-7.15-7.15V7.2c0-3.95,3.2-7.15,7.15-7.15h62.7c3.95,0,7.15,3.2,7.15,7.15
		v62.7C77.59,73.85,74.39,77.05,70.44,77.05z"/>
	<g>
		<path class="st2" d="M47.41,55.18c-2.51-1.08-5.26-3.11-6.89-4.39l0,0c0,0-0.02-0.01-0.04-0.03c-0.86-0.68-1.4-1.15-1.4-1.15l0,0
			h0c0,0-0.55,0.48-1.43,1.18l0,0v0c-1.63,1.29-4.38,3.31-6.89,4.39c-0.46,0.22-4.17,1.39-1.42,3.2c2.94,1.45,6.25,2.26,9.74,2.26
			c3.5,0,6.81-0.82,9.74-2.26C51.58,56.57,47.88,55.4,47.41,55.18z"/>
		<path class="st2" d="M39.09,16.46C26.89,16.46,17,26.35,17,38.55c0,6.36,2.69,12.09,6.99,16.12c0.46,0.2,2.02,1.25,6.09-0.39
			c0.61-0.27,5-2.52,8.21-5.36c-0.64-0.54-1.33-1.13-1.96-1.67c-1.24-0.97-2.41-2.2-3.15-3.07c-13.08-15.25,5.96-14.6,5.96-14.6
			s18.91-0.65,5.83,14.6c-0.32,0.37-0.72,0.8-1.17,1.26c0,0,0,0,0,0c-0.11,0.13-0.34,0.35-0.65,0.64c-0.33,0.31-0.68,0.63-1.03,0.92
			c-0.7,0.61-1.5,1.29-2.24,1.92c3.21,2.84,7.6,5.09,8.21,5.36c4.07,1.64,5.63,0.6,6.09,0.39c4.3-4.03,6.99-9.76,6.99-16.12
			C61.18,26.35,51.29,16.46,39.09,16.46z"/>
	</g>
</g>
</svg>
