<?xml version="1.0" encoding="utf-8"?>
<!-- Generator: Adobe Illustrator 23.0.6, SVG Export Plug-In . SVG Version: 6.00 Build 0)  -->
<svg version="1.1" id="Camada_1" xmlns="http://www.w3.org/2000/svg" xmlns:xlink="http://www.w3.org/1999/xlink" x="0px" y="0px"
	 viewBox="0 0 124 175" style="enable-background:new 0 0 124 175;" xml:space="preserve">
<style type="text/css">
	.st0{fill:#706F6F;}
	.st1{fill-rule:evenodd;clip-rule:evenodd;fill:#E8E8E8;}
	.st2{fill:#E8E8E8;}
</style>
<g>
	<g>
		<path class="st0" d="M18.14,162.85c0,0.71-0.25,1.31-0.76,1.8c-0.5,0.49-1.1,0.73-1.77,0.73H1.71c-0.71,0-1.31-0.24-1.8-0.73
			c-0.49-0.49-0.73-1.09-0.73-1.8v-20.22c0-0.68,0.24-1.26,0.73-1.77c0.49-0.5,1.09-0.75,1.8-0.75h13.91c0.67,0,1.27,0.25,1.77,0.75
			c0.5,0.51,0.76,1.11,0.76,1.82v-12.03h6.52v34.73h-6.52V162.85z M15.62,159.06c0.67,0,1.27-0.24,1.77-0.74
			c0.5-0.49,0.76-1.09,0.76-1.8v-10.11H5.71v12.64H15.62z"/>
		<path class="st0" d="M51.16,162.85c0,0.71-0.25,1.31-0.73,1.8c-0.49,0.49-1.09,0.73-1.79,0.73H28.21c-0.71,0-1.31-0.24-1.79-0.73
			c-0.49-0.49-0.73-1.09-0.73-1.8v-20.18c0-0.7,0.25-1.31,0.73-1.82c0.49-0.5,1.09-0.75,1.79-0.75h20.43c0.71,0,1.31,0.25,1.79,0.75
			c0.49,0.51,0.73,1.09,0.73,1.77V162.85z M44.64,146.42H32.2v12.64h12.44V146.42z"/>
		<path class="st0" d="M54.6,174.84c-0.68,0-1.25-0.25-1.72-0.73c-0.47-0.49-0.71-1.09-0.71-1.79v-5.37h6.53v1.57h10.31v-5.66
			c0,0.68-0.25,1.26-0.76,1.77c-0.51,0.51-1.1,0.76-1.77,0.76H54.7c-0.71,0-1.31-0.25-1.79-0.76c-0.49-0.51-0.74-1.09-0.74-1.77
			v-20.22c0-0.68,0.25-1.26,0.74-1.77c0.49-0.5,1.08-0.75,1.79-0.75h11.78c0.67,0,1.27,0.24,1.77,0.73c0.5,0.49,0.76,1.09,0.76,1.8
			v-2.52h6.52v32.21c0,0.71-0.25,1.3-0.76,1.79c-0.5,0.49-1.1,0.73-1.77,0.73H54.6z M66.43,159.06c0.71,0,1.32-0.25,1.82-0.76
			c0.5-0.5,0.76-1.09,0.76-1.77v-10.11H58.7v12.64H66.43z"/>
		<path class="st0" d="M78.57,154.66c0-0.77,0.26-1.39,0.81-1.87L95.4,140.1v-3.14H85.09v1.57h-6.52v-5.36
			c0-0.71,0.24-1.31,0.73-1.8c0.49-0.49,1.09-0.73,1.79-0.73H99.4c0.7,0,1.3,0.24,1.8,0.73c0.49,0.49,0.73,1.07,0.73,1.75v8.24
			c0,0.71-0.27,1.33-0.81,1.87l-16.03,12.69v3.14h16.84v6.32H81.09c-0.71,0-1.3-0.24-1.79-0.73c-0.49-0.49-0.73-1.09-0.73-1.8
			V154.66z"/>
		<path class="st0" d="M113.35,165.38h-7.03l12.39-28.42h-9.76v1.57h-6.52v-5.36c0-0.71,0.25-1.31,0.73-1.8
			c0.49-0.49,1.09-0.73,1.8-0.73h18.3c0.71,0,1.31,0.24,1.8,0.73c0.49,0.49,0.73,1.09,0.73,1.8v3.34c0,0.17-0.04,0.39-0.1,0.66
			L113.35,165.38z"/>
	</g>
	<g>
		<path class="st0" d="M85.5,107.57c-6.94-2.99-14.56-8.59-19.05-12.15l0.01,0.01c0,0-0.05-0.04-0.11-0.09
			c-2.38-1.89-3.86-3.19-3.86-3.19l0,0h0c0,0-1.52,1.33-3.96,3.27l-0.01,0.01v-0.01c-4.49,3.57-12.1,9.17-19.04,12.15
			c-1.28,0.61-11.53,3.84-3.93,8.84c8.13,4,17.27,6.26,26.94,6.26c9.67,0,18.82-2.26,26.95-6.26
			C97.02,111.41,86.79,108.18,85.5,107.57z"/>
		<path class="st0" d="M62.49,0.48c-33.74,0-61.1,27.35-61.1,61.09c0,17.59,7.44,33.42,19.34,44.57c1.26,0.56,5.59,3.45,16.85-1.08
			c1.69-0.75,13.81-6.98,22.7-14.84c-1.77-1.49-3.68-3.12-5.41-4.63c-3.43-2.67-6.65-6.08-8.71-8.48
			C9.98,34.97,62.64,36.76,62.64,36.76s52.3-1.79,16.12,40.37c-0.88,1.01-1.98,2.22-3.23,3.49c0,0,0,0,0,0
			c-0.29,0.35-0.93,0.97-1.79,1.76c-0.92,0.87-1.88,1.73-2.85,2.54c-1.93,1.68-4.16,3.58-6.2,5.31c8.89,7.86,21.01,14.08,22.7,14.84
			c11.25,4.52,15.58,1.65,16.84,1.08c11.9-11.15,19.34-26.99,19.34-44.57C123.58,27.83,96.23,0.48,62.49,0.48z"/>
	</g>
</g>
</svg>
