<?xml version="1.0" encoding="utf-8"?>
<!-- Generator: Adobe Illustrator 23.0.6, SVG Export Plug-In . SVG Version: 6.00 Build 0)  -->
<svg version="1.1" id="Camada_1" xmlns="http://www.w3.org/2000/svg" xmlns:xlink="http://www.w3.org/1999/xlink" x="0px" y="0px"
	 viewBox="0 0 77 77" style="enable-background:new 0 0 77 77;" xml:space="preserve">
<style type="text/css">
	.st0{fill:#706F6F;}
	.st1{fill-rule:evenodd;clip-rule:evenodd;fill:#E8E8E8;}
	.st2{fill:#E8E8E8;}
</style>
<g>
	<path class="st0" d="M69.75,77.05H7.05c-3.95,0-7.15-3.2-7.15-7.15V7.2c0-3.95,3.2-7.15,7.15-7.15h62.7c3.95,0,7.15,3.2,7.15,7.15
		v62.7C76.9,73.85,73.7,77.05,69.75,77.05z"/>
	<g>
		<path class="st2" d="M63.4,31.93c0-6.01-4.87-10.88-10.88-10.88H24.29c-6.01,0-10.88,4.87-10.88,10.88v13.23
			c0,6.01,4.87,10.88,10.88,10.88h28.23c6.01,0,10.88-4.87,10.88-10.88V31.93z M45.59,39.21l-11.26,6.18
			c-0.49,0.26-0.93-0.09-0.93-0.65V32.07c0-0.56,0.45-0.92,0.94-0.64l11.34,6.5C46.18,38.22,46.1,38.94,45.59,39.21z"/>
	</g>
</g>
</svg>
